<svg xmlns="http://www.w3.org/2000/svg" viewBox="0 0 1200 630" width="1200" height="630">
  <defs>
    <linearGradient id="bg" x1="0" y1="0" x2="1" y2="1">
      <stop offset="0%" stop-color="#0a1022"/>
      <stop offset="100%" stop-color="#12203b"/>
    </linearGradient>
    <linearGradient id="band" x1="0" y1="0" x2="1" y2="0">
      <stop offset="0%" stop-color="#38bdf8"/>
      <stop offset="100%" stop-color="#22c55e"/>
    </linearGradient>
  </defs>
  <rect width="1200" height="630" fill="url(#bg)"/>
  <rect x="0" y="0" width="1200" height="6" fill="url(#band)"/>
  <rect x="0" y="624" width="1200" height="6" fill="url(#band)"/>

  <circle cx="140" cy="114" r="34" fill="#38bdf8" fill-opacity="0.18"/>
  <path d="M140 87 C118 87 104 102 104 126 C104 152 122 172 140 176 C158 172 176 152 176 126 C176 102 162 87 140 87 Z" fill="none" stroke="#7dd3fc" stroke-width="4"/>

  <rect x="190" y="90" width="95" height="28" rx="14" fill="#38bdf8" fill-opacity="0.18"/>
  <text x="237" y="109" text-anchor="middle" font-family="Segoe UI, Arial, sans-serif" font-size="12" fill="#bae6fd" font-weight="700">MEDICAL AI</text>

  <text x="80" y="180" font-family="Segoe UI, Arial, sans-serif" font-size="56" fill="#e2e8f0" font-weight="800">Brain Tumor Detection</text>
  <text x="80" y="220" font-family="Segoe UI, Arial, sans-serif" font-size="28" fill="#94a3b8">Medical Image Classification</text>

  <rect x="80" y="264" width="1040" height="220" rx="18" fill="#172745" fill-opacity="0.72" stroke="#2d456f"/>
  <text x="120" y="320" font-family="Segoe UI, Arial, sans-serif" font-size="30" fill="#dbeafe" font-weight="700">MRI-assisted tumor screening support</text>
  <text x="120" y="362" font-family="Segoe UI, Arial, sans-serif" font-size="24" fill="#b6c7dc">CNN-based analysis pipeline for medical image classification</text>
  <text x="120" y="402" font-family="Segoe UI, Arial, sans-serif" font-size="24" fill="#b6c7dc">Focused on fast inference and clinically useful interpretability</text>
  <text x="120" y="442" font-family="Segoe UI, Arial, sans-serif" font-size="24" fill="#b6c7dc">Built for integration with diagnostic decision-support workflows</text>

  <text x="1120" y="586" text-anchor="end" font-family="Segoe UI, Arial, sans-serif" font-size="18" fill="#8aa0bd">Awais Waqar Â -  Medical AI Project</text>
</svg>
