<svg xmlns="http://www.w3.org/2000/svg" viewBox="0 0 1200 630" width="1200" height="630">
  <defs>
    <linearGradient id="bg" x1="0" y1="0" x2="1" y2="1">
      <stop offset="0%" stop-color="#0e0920"/>
      <stop offset="100%" stop-color="#1a1035"/>
    </linearGradient>
    <linearGradient id="band" x1="0" y1="0" x2="1" y2="0">
      <stop offset="0%" stop-color="#8b5cf6"/>
      <stop offset="100%" stop-color="#6366f1"/>
    </linearGradient>
  </defs>
  <rect width="1200" height="630" fill="url(#bg)"/>
  <rect x="0" y="0" width="1200" height="6" fill="url(#band)"/>
  <rect x="0" y="624" width="1200" height="6" fill="url(#band)"/>

  <circle cx="145" cy="116" r="30" fill="#8b5cf6" fill-opacity="0.22"/>
  <rect x="130" y="92" width="30" height="42" rx="4" fill="none" stroke="#a78bfa" stroke-width="3"/>
  <line x1="138" y1="106" x2="152" y2="106" stroke="#a78bfa" stroke-width="2"/>
  <line x1="138" y1="116" x2="152" y2="116" stroke="#a78bfa" stroke-width="2"/>

  <rect x="185" y="92" width="95" height="28" rx="14" fill="#8b5cf6" fill-opacity="0.18"/>
  <text x="232" y="111" text-anchor="middle" font-family="Segoe UI, Arial, sans-serif" font-size="12" fill="#c4b5fd" font-weight="700">RAG / LLM</text>

  <text x="80" y="180" font-family="Segoe UI, Arial, sans-serif" font-size="50" fill="#ede9fe" font-weight="800">RAG-Based Legal Contract Intelligence</text>
  <text x="80" y="220" font-family="Segoe UI, Arial, sans-serif" font-size="28" fill="#a5b4fc">Enterprise Document Analysis</text>

  <rect x="80" y="264" width="1040" height="220" rx="18" fill="#20153f" fill-opacity="0.72" stroke="#3b2a6f"/>
  <text x="120" y="320" font-family="Segoe UI, Arial, sans-serif" font-size="30" fill="#ddd6fe" font-weight="700">Semantic legal retrieval with trustworthy answers</text>
  <text x="120" y="362" font-family="Segoe UI, Arial, sans-serif" font-size="24" fill="#c4b5fd">Context-aware search across large contract collections</text>
  <text x="120" y="402" font-family="Segoe UI, Arial, sans-serif" font-size="24" fill="#c4b5fd">Citation-backed responses for legal review and compliance</text>
  <text x="120" y="442" font-family="Segoe UI, Arial, sans-serif" font-size="24" fill="#c4b5fd">Designed for speed, accuracy, and enterprise workflows</text>

  <text x="1120" y="586" text-anchor="end" font-family="Segoe UI, Arial, sans-serif" font-size="18" fill="#9a8cc9">Awais Waqar  -  CareCloud Project</text>
</svg>
